<svg xmlns="http://www.w3.org/2000/svg" viewBox="0 0 64 64">
  <defs>
    <linearGradient id="b" x1="0" y1="0" x2="1" y2="1">
      <stop offset="0" stop-color="#0e172b"/>
      <stop offset="1" stop-color="#0b1222"/>
    </linearGradient>
  </defs>
  <rect width="64" height="64" rx="14" fill="url(#b)"/>
  <path d="M10 48h10c8 0 12-4 12-12V16H22v18c0 4-2 6-6 6h-6v8z" fill="#4f8cff"/>
  <path d="M54 48h-9l-6-10h-3v10h-9V16h14c8 0 12 4 12 11 0 5-2 8-6 10l7 11zM36 30h5c3 0 4-1 4-3 0-2-1-3-4-3h-5v6z"
        fill="#e6ecff"/>
</svg>
